<svg width="302" height="282" viewBox="0 0 302 282" fill="none" xmlns="http://www.w3.org/2000/svg">
<path fill-rule="evenodd" clip-rule="evenodd" d="M207.054 15.2212C206.317 24.2095 206.857 30.4705 207.633 36.753C209.125 46.4974 212.922 54.1223 222.426 54.1223C226.321 54.1223 230.97 53.0319 235.837 51.1445C235.862 51.1647 235.887 51.185 235.912 51.2052C247.088 46.9587 258.793 44.3971 266.033 44.3971C283.359 44.3971 286.111 80.7167 286.111 98.0428C286.111 98.6278 286.112 99.2805 286.112 99.9957C286.127 111.63 286.161 139.807 283.115 161.966C277.398 227.764 221.931 280.94 154.349 280.94C82.9655 280.94 25.0975 223.494 25.0975 152.63C25.0975 112.871 43.3134 76.7434 71.9122 52.6877C95.0102 32.2247 159.689 1.96622 173.8 0.790273C174.323 0.746631 174.943 0.686295 175.641 0.618237L175.641 0.618221C184.986 -0.292224 208.513 -2.58438 207.054 15.2212Z" fill="#8BF675"/>
<path d="M284.229 147.61C232.779 288.658 21.0191 209.413 67.7631 248C114.507 286.587 168.94 292.831 222.74 260.862C266.033 235.138 283.287 187.452 284.229 147.61Z" fill="#71E35B"/>
<ellipse cx="120.284" cy="119.789" rx="9.74333" ry="17.2534" transform="rotate(6.87124 120.284 119.789)" fill="#090909"/>
<ellipse cx="9.74333" cy="17.2534" rx="9.74333" ry="17.2534" transform="matrix(-0.992818 0.119638 0.119638 0.992818 190.637 100.866)" fill="#090909"/>
<path d="M137.409 157.963C141.801 159.95 152.781 162.355 161.565 156.081" stroke="black" stroke-width="6.27436" stroke-linecap="round"/>
<ellipse cx="199.525" cy="150.747" rx="9.41154" ry="5.33321" fill="#47E73E"/>
<ellipse cx="101.017" cy="150.747" rx="9.41154" ry="5.33321" fill="#47E73E"/>
<path d="M292.483 233.337C285.582 243.69 270.837 242.702 260.82 238.736C247.184 233.337 239.465 221.416 241.975 213.573C246.298 202.654 266.758 195.348 276.475 199.195C292.585 205.573 296.806 222.418 292.483 233.337Z" fill="#76EF61"/>
<path d="M60.035 214.355C62.4281 226.565 51.2657 236.249 41.3622 240.49C27.8803 246.262 14.0039 243.238 10.261 235.903C5.63858 225.107 15.0157 205.509 24.6229 201.395C40.5505 194.575 55.4126 203.559 60.035 214.355Z" fill="#76EF61"/>
</svg>
