<svg width="185" height="42" viewBox="0 0 185 42" fill="none" xmlns="http://www.w3.org/2000/svg">
<path d="M25.6754 0.117192C26.7877 0.024498 30.8203 -0.578056 30.5885 2.24903C30.484 3.52461 30.5535 4.42833 30.6608 5.32032C30.8692 6.81149 31.4199 7.99501 32.859 7.99512C33.4341 7.99512 34.12 7.83318 34.8385 7.55469C34.8428 7.55815 34.8469 7.56197 34.8512 7.56543C36.5024 6.93796 38.2318 6.5586 39.3014 6.5586C41.8609 6.55876 42.2672 11.9248 42.2672 14.4844C42.2672 15.9756 42.3003 20.4455 41.8239 23.9189C40.983 33.6429 32.7889 41.5038 22.8024 41.5039C12.2568 41.5039 3.70767 33.0167 3.70767 22.5479C3.70777 16.6588 6.41267 11.3085 10.6569 7.75489C14.0972 4.73246 23.597 0.290644 25.6754 0.117192Z" fill="#8BF675"/>
<path d="M41.9894 21.8066C34.3887 42.6438 3.10518 30.9368 10.0107 36.6373C16.9163 42.3379 24.9577 43.2602 32.9056 38.5375C39.3013 34.7371 41.8503 27.6926 41.9894 21.8066Z" fill="#71E35B"/>
<ellipse cx="17.7697" cy="17.6965" rx="1.43939" ry="2.54886" transform="rotate(6.87124 17.7697 17.6965)" fill="#090909"/>
<ellipse cx="1.43939" cy="2.54886" rx="1.43939" ry="2.54886" transform="matrix(-0.992818 0.119638 0.119638 0.992818 28.163 14.9011)" fill="#090909"/>
<path d="M20.2995 23.3361C20.9483 23.6296 22.5704 23.9849 23.8681 23.058" stroke="black" stroke-width="0.926918" stroke-linecap="round"/>
<ellipse cx="29.476" cy="22.2701" rx="1.39038" ry="0.78788" fill="#47E73E"/>
<ellipse cx="14.9234" cy="22.2701" rx="1.39038" ry="0.78788" fill="#47E73E"/>
<path d="M50.6948 6.78375H74.5348V12.3038H56.7748V18.0638H73.6948V23.5438H56.7748V34.7838H50.6948V6.78375ZM82.4379 34.7838H76.3979V12.5038H82.4379V34.7838ZM82.4379 10.9038H76.3979V5.46375H82.4379V10.9038Z" fill="#80E56D"/>
<path d="M98.481 12.3438C107.961 12.3438 108.201 20.3038 108.201 23.5838V34.7838H102.161V23.5838C102.161 21.8238 102.521 17.5838 96.721 17.5838C91.441 17.5838 90.681 20.9438 90.681 23.9838V34.7838H84.601V12.3438H90.681V15.6638H90.961C92.401 13.6638 94.441 12.3438 98.481 12.3438ZM121.964 11.9438C128.804 11.9438 134.484 15.5838 134.484 23.3838C134.484 31.2638 128.804 34.7838 121.964 34.7838C115.164 34.7838 109.484 31.1438 109.484 23.3838C109.484 15.6638 115.164 11.9438 121.964 11.9438ZM121.964 29.2638C125.804 29.2638 128.524 27.4238 128.524 23.3838C128.524 19.2238 125.804 17.5038 121.964 17.5038C118.164 17.5038 115.444 19.1438 115.444 23.3838C115.444 27.5838 118.164 29.2638 121.964 29.2638ZM153.002 12.5038H159.442L150.802 34.7838H141.522L132.882 12.5038H139.282L145.842 29.3838H146.442L153.002 12.5038ZM176.835 15.6638H177.115V12.3438H183.195V34.7838H177.115V31.6638H176.915C175.395 33.6238 172.835 34.7838 168.595 34.7838C159.195 34.7838 158.155 26.5838 158.155 23.5838C158.155 20.3038 159.155 12.3438 168.635 12.3438C172.795 12.3438 175.315 13.6638 176.835 15.6638ZM170.395 29.5838C175.635 29.5838 176.715 26.9838 176.715 23.5838C176.715 20.5438 175.635 17.5838 170.395 17.5838C164.555 17.5838 163.955 21.8238 163.955 23.5838C163.955 25.1838 164.595 29.5838 170.395 29.5838Z" fill="white"/>
</svg>
