<svg width="185" height="42" viewBox="0 0 185 42" fill="none" xmlns="http://www.w3.org/2000/svg">
<path fill-rule="evenodd" clip-rule="evenodd" d="M30.5883 2.24864C30.4794 3.5765 30.5593 4.50145 30.6739 5.42957C30.8942 6.86912 31.4552 7.99554 32.8592 7.99554C33.4347 7.99554 34.1215 7.83446 34.8405 7.55563C34.8442 7.55862 34.8479 7.56161 34.8516 7.56461C36.5026 6.93727 38.2318 6.55883 39.3013 6.55883C41.8609 6.55883 42.2674 11.9244 42.2674 14.484C42.2674 14.5704 42.2676 14.6668 42.2677 14.7725C42.2698 16.4911 42.2749 20.6538 41.8249 23.9275C40.9802 33.6478 32.786 41.5036 22.8022 41.5036C12.2566 41.5036 3.70767 33.017 3.70767 22.5482C3.70767 16.6746 6.39873 11.3374 10.6236 7.78363C14.0359 4.7606 23.591 0.290474 25.6756 0.11675C25.753 0.110303 25.8445 0.10139 25.9477 0.0913365L25.9477 0.0913327C27.3282 -0.0431683 30.8039 -0.381791 30.5883 2.24864Z" fill="#8BF675"/>
<path d="M41.9894 21.8066C34.3887 42.6437 3.10518 30.9368 10.0107 36.6373C16.9163 42.3379 24.9577 43.2602 32.9056 38.5375C39.3013 34.7371 41.8503 27.6926 41.9894 21.8066Z" fill="#71E35B"/>
<ellipse cx="17.7697" cy="17.6965" rx="1.43939" ry="2.54886" transform="rotate(6.87124 17.7697 17.6965)" fill="#090909"/>
<ellipse cx="1.43939" cy="2.54886" rx="1.43939" ry="2.54886" transform="matrix(-0.992818 0.119638 0.119638 0.992818 28.163 14.9011)" fill="#090909"/>
<path d="M20.2995 23.336C20.9483 23.6296 22.5704 23.9849 23.8681 23.058" stroke="black" stroke-width="0.926918" stroke-linecap="round"/>
<ellipse cx="29.476" cy="22.2701" rx="1.39038" ry="0.78788" fill="#47E73E"/>
<ellipse cx="14.9234" cy="22.2701" rx="1.39038" ry="0.78788" fill="#47E73E"/>
<path d="M50.6948 6.78374H74.5348V12.3037H56.7748V18.0637H73.6948V23.5437H56.7748V34.7837H50.6948V6.78374ZM82.4379 34.7837H76.3979V12.5037H82.4379V34.7837ZM82.4379 10.9037H76.3979V5.46374H82.4379V10.9037Z" fill="#80E56D"/>
<path d="M98.481 12.3437C107.961 12.3437 108.201 20.3037 108.201 23.5837V34.7837H102.161V23.5837C102.161 21.8237 102.521 17.5837 96.721 17.5837C91.441 17.5837 90.681 20.9437 90.681 23.9837V34.7837H84.601V12.3437H90.681V15.6637H90.961C92.401 13.6637 94.441 12.3437 98.481 12.3437ZM121.964 11.9437C128.804 11.9437 134.484 15.5837 134.484 23.3837C134.484 31.2637 128.804 34.7837 121.964 34.7837C115.164 34.7837 109.484 31.1437 109.484 23.3837C109.484 15.6637 115.164 11.9437 121.964 11.9437ZM121.964 29.2637C125.804 29.2637 128.524 27.4237 128.524 23.3837C128.524 19.2237 125.804 17.5037 121.964 17.5037C118.164 17.5037 115.444 19.1437 115.444 23.3837C115.444 27.5837 118.164 29.2637 121.964 29.2637ZM153.002 12.5037H159.442L150.802 34.7837H141.522L132.882 12.5037H139.282L145.842 29.3837H146.442L153.002 12.5037ZM176.835 15.6637H177.115V12.3437H183.195V34.7837H177.115V31.6637H176.915C175.395 33.6237 172.835 34.7837 168.595 34.7837C159.195 34.7837 158.155 26.5837 158.155 23.5837C158.155 20.3037 159.155 12.3437 168.635 12.3437C172.795 12.3437 175.315 13.6637 176.835 15.6637ZM170.395 29.5837C175.635 29.5837 176.715 26.9837 176.715 23.5837C176.715 20.5437 175.635 17.5837 170.395 17.5837C164.555 17.5837 163.955 21.8237 163.955 23.5837C163.955 25.1837 164.595 29.5837 170.395 29.5837Z" fill="black"/>
</svg>
