<svg width="1426" height="440" viewBox="0 0 1426 440" fill="none" xmlns="http://www.w3.org/2000/svg">
<circle cx="279" cy="160" r="75" fill="#F6F4EE"/>
<circle cx="205" cy="338" r="75" fill="#F6F4EE"/>
<circle cx="380.5" cy="252.5" r="12.5" fill="#64C6FF"/>
<path d="M188.75 357.573C189.253 353.961 193.833 352.702 196.112 355.55L206.292 368.274C207.243 369.462 208.766 370.036 210.264 369.77L226.308 366.922C229.9 366.284 232.512 370.252 230.508 373.299L221.553 386.913C220.716 388.184 220.642 389.81 221.357 391.153L229.024 405.532C230.74 408.75 227.774 412.461 224.256 411.496L208.542 407.186C207.074 406.783 205.505 407.215 204.449 408.31L193.143 420.045C190.612 422.672 186.167 420.998 185.997 417.354L185.24 401.077C185.169 399.557 184.274 398.197 182.906 397.532L168.252 390.405C164.972 388.81 165.19 384.065 168.603 382.777L183.85 377.028C185.273 376.491 186.29 375.219 186.5 373.712L188.75 357.573Z" fill="#FFCD6C"/>
<path d="M320.313 125.565C321.372 124.75 322.891 125.597 322.756 126.926L322.149 132.862C322.093 133.416 322.343 133.957 322.803 134.272L327.724 137.645C328.826 138.4 328.49 140.107 327.184 140.389L321.352 141.646C320.807 141.763 320.37 142.169 320.213 142.703L318.525 148.426C318.147 149.707 316.42 149.915 315.749 148.761L312.751 143.602C312.471 143.121 311.95 142.83 311.393 142.846L305.429 143.009C304.094 143.046 303.362 141.468 304.253 140.472L308.233 136.027C308.604 135.612 308.719 135.027 308.533 134.502L306.534 128.88C306.087 127.621 307.362 126.438 308.583 126.978L314.041 129.389C314.551 129.614 315.143 129.542 315.584 129.203L320.313 125.565Z" fill="#FFCD6C"/>
<path d="M47.3134 279.565C48.3721 278.75 49.8914 279.597 49.7557 280.926L49.1493 286.862C49.0927 287.416 49.3434 287.957 49.8029 288.272L54.7242 291.645C55.8259 292.4 55.49 294.107 54.1844 294.389L48.3518 295.646C47.8072 295.763 47.3703 296.169 47.2127 296.703L45.525 302.426C45.1472 303.707 43.4204 303.915 42.7492 302.761L39.7508 297.602C39.4708 297.121 38.9501 296.83 38.3932 296.846L32.4288 297.009C31.0937 297.046 30.3622 295.468 31.253 294.472L35.2326 290.027C35.6041 289.612 35.7192 289.027 35.5326 288.502L33.5341 282.88C33.0868 281.621 34.3615 280.438 35.5833 280.978L41.0411 283.389C41.5507 283.614 42.1426 283.542 42.5842 283.203L47.3134 279.565Z" fill="#F6F4EE"/>
<path d="M411.529 77.495C412.156 74.071 416.462 72.8878 418.751 75.5109L432.596 91.381C433.214 92.0897 434.054 92.5678 434.979 92.7371L455.696 96.5294C459.12 97.1562 460.303 101.462 457.68 103.751L441.81 117.596C441.101 118.214 440.623 119.054 440.453 119.979L436.661 140.696C436.034 144.12 431.728 145.303 429.44 142.68L415.595 126.81C414.977 126.101 414.136 125.623 413.211 125.453L392.495 121.661C389.071 121.034 387.888 116.728 390.511 114.44L406.381 100.595C407.09 99.9768 407.568 99.1364 407.737 98.2112L411.529 77.495Z" fill="#FFCD6C"/>
<path d="M240.159 142.237C241.393 141.488 242.945 142.495 242.763 143.927L241.661 152.586C241.612 152.973 241.695 153.365 241.898 153.698L246.429 161.16C247.178 162.393 246.17 163.945 244.739 163.763L236.079 162.661C235.693 162.612 235.301 162.695 234.968 162.898L227.506 167.429C226.273 168.178 224.721 167.171 224.903 165.739L226.005 157.08C226.054 156.693 225.971 156.301 225.768 155.968L221.237 148.507C220.488 147.273 221.495 145.721 222.927 145.903L231.586 147.005C231.973 147.054 232.365 146.971 232.698 146.768L240.159 142.237Z" fill="white"/>
<path d="M147.813 136.732C147.227 139.001 144.278 139.587 142.868 137.715L134.339 126.388C133.958 125.882 133.417 125.521 132.804 125.362L119.076 121.813C116.807 121.227 116.221 118.278 118.093 116.868L129.42 108.339C129.926 107.958 130.288 107.417 130.446 106.804L133.995 93.0762C134.582 90.8073 137.531 90.2212 138.94 92.0933L147.47 103.42C147.85 103.926 148.392 104.288 149.005 104.446L162.732 107.995C165.001 108.582 165.587 111.531 163.715 112.94L152.388 121.469C151.882 121.85 151.521 122.391 151.362 123.005L147.813 136.732Z" fill="#F3EBDF"/>
<path d="M169.466 226.58C168.899 227.703 167.284 227.674 166.759 226.53L163.577 219.611C163.435 219.302 163.192 219.051 162.888 218.897L156.09 215.466C154.966 214.899 154.995 213.284 156.139 212.759L163.058 209.577C163.367 209.435 163.619 209.192 163.772 208.888L167.203 202.09C167.77 200.966 169.385 200.995 169.911 202.139L173.093 209.058C173.235 209.367 173.477 209.619 173.781 209.772L180.58 213.203C181.703 213.77 181.674 215.385 180.53 215.911L173.611 219.093C173.302 219.235 173.051 219.477 172.897 219.781L169.466 226.58Z" fill="#FFCD6C"/>
<circle cx="75" cy="363" r="20" fill="#00CA78"/>
<circle cx="380.5" cy="34.5" r="7.5" fill="#FFCD6C"/>
<circle cx="63" cy="100" r="15" fill="#FF3E00"/>
<path d="M52.2222 216.185C52.2222 230.606 40.5319 242.296 26.1111 242.296C11.6903 242.296 0 230.606 0 216.185C0 201.764 11.6903 190.074 26.1111 190.074C40.5319 190.074 52.2222 201.764 52.2222 216.185Z" fill="#64C6FF"/>
<path d="M99.8025 194.716C99.8025 215.546 82.9164 232.432 62.0864 232.432C41.2564 232.432 24.3704 215.546 24.3704 194.716C24.3704 173.886 41.2564 157 62.0864 157C82.9164 157 99.8025 173.886 99.8025 194.716Z" fill="#64C6FF"/>
<path d="M141 210.383C141 228.008 126.712 242.296 109.086 242.296C91.461 242.296 77.1728 228.008 77.1728 210.383C77.1728 192.757 91.461 178.469 109.086 178.469C126.712 178.469 141 192.757 141 210.383Z" fill="#64C6FF"/>
<path d="M26.1111 217.926H109.086V242.296H26.1111V217.926Z" fill="#64C6FF"/>
<path d="M79.4938 178.759C76.5589 180.605 72.4945 180.239 71.0708 177.975C69.6471 175.711 70.1175 171.513 73.0523 169.668C75.9872 167.822 80.3663 169.357 81.79 171.622C83.2138 173.886 82.4287 176.914 79.4938 178.759Z" fill="#81CFFF"/>
<path d="M87.4318 183.497C85.9446 184.441 83.0867 183.986 82.5746 183.172C81.7595 181.875 82.5746 180.376 84.3153 179.11C85.5894 178.184 87.8521 178.394 88.6672 179.69C89.1793 180.505 88.7808 182.642 87.4318 183.497Z" fill="#81CFFF"/>
<path d="M309.033 95.033C307.47 96.5958 305.351 97.4738 303.14 97.4738C300.93 97.4738 298.811 96.5958 297.248 95.033L291.355 89.1405L285.463 95.033C283.9 96.5958 281.78 97.4738 279.57 97.4738C277.36 97.4738 275.24 96.5958 273.678 95.033C272.115 93.4702 271.237 91.3506 271.237 89.1405C271.237 86.9303 272.115 84.8107 273.678 83.2479L279.57 77.3553L273.678 71.4628C272.115 69.9 271.237 67.7804 271.237 65.5702C271.237 63.3601 272.115 61.2405 273.678 59.6777C275.24 58.1149 277.36 57.2369 279.57 57.2369C281.78 57.2369 283.9 58.1149 285.463 59.6777L291.355 65.5702L297.248 59.6777C298.811 58.1149 300.93 57.2369 303.14 57.2369C305.351 57.2369 307.47 58.1149 309.033 59.6777C310.596 61.2405 311.474 63.3601 311.474 65.5702C311.474 67.7804 310.596 69.9 309.033 71.4628L303.14 77.3553L309.033 83.2479C310.596 84.8107 311.474 86.9303 311.474 89.1405C311.474 91.3506 310.596 93.4702 309.033 95.033Z" fill="#64C6FF"/>
<rect x="230" y="307.96" width="50" height="17" rx="8.5" transform="rotate(-10.3234 230 307.96)" fill="#FF3E00"/>
<ellipse cx="29.8867" cy="29.47" rx="29.8867" ry="29.47" transform="matrix(-0.501321 0.865261 -0.828506 -0.559981 230.784 43.1849)" fill="#FFB112"/>
<ellipse cx="29.5746" cy="29.1623" rx="29.5746" ry="29.1623" transform="matrix(-0.501321 0.865261 -0.828506 -0.559981 234.952 43.061)" fill="#FFCD6C"/>
<path fill-rule="evenodd" clip-rule="evenodd" d="M171.103 37.8693L224.063 49.0334C224.857 55.4247 223.764 62.0893 220.556 68.0012L168.216 56.9677C167.214 50.5874 168.1 43.8757 171.103 37.8693Z" fill="#FFD993"/>
<path fill-rule="evenodd" clip-rule="evenodd" d="M333.28 163.855L277.611 152.733C269.488 151.11 261.586 156.38 259.963 164.503L244.673 241.036C243.05 249.16 248.32 257.061 256.443 258.684L324.503 272.281C332.626 273.904 340.528 268.634 342.151 260.511L355.113 195.632L333.28 163.855Z" fill="#EFE9DB"/>
<path fill-rule="evenodd" clip-rule="evenodd" d="M354.959 196.286L339.372 193.792C332.282 192.657 327.455 185.99 328.59 178.9L331.081 163.337L333.436 163.78L355.095 195.566L354.959 196.286Z" fill="#DDD1BC"/>
<path d="M331.195 198.958L277.885 188.307C275.422 187.815 273.027 189.412 272.536 191.875C272.044 194.337 273.641 196.732 276.103 197.224L329.414 207.874C331.876 208.366 334.271 206.769 334.763 204.307C335.255 201.845 333.657 199.45 331.195 198.958Z" fill="#DDD1BC"/>
<path d="M328.042 214.739L274.732 204.088C272.269 203.596 269.875 205.193 269.383 207.655C268.891 210.118 270.488 212.512 272.95 213.004L326.261 223.655C328.723 224.147 331.118 222.55 331.61 220.088C332.102 217.625 330.504 215.231 328.042 214.739Z" fill="#DDD1BC"/>
<path d="M324.889 230.52L288.694 223.288C286.232 222.796 283.837 224.394 283.345 226.856C282.853 229.318 284.45 231.713 286.913 232.205L323.108 239.436C325.57 239.928 327.965 238.331 328.457 235.869C328.949 233.406 327.352 231.012 324.889 230.52Z" fill="#DDD1BC"/>
<g clip-path="url(#clip0_65_833)">
<path fill-rule="evenodd" clip-rule="evenodd" d="M154.642 257.246C152.22 251.585 144.194 251.585 141.771 257.246L140.373 260.513C138.877 264.008 134.864 265.671 131.335 264.257L128.036 262.935C122.32 260.645 116.645 266.32 118.935 272.036L120.257 275.335C121.671 278.864 120.008 282.877 116.513 284.373L113.246 285.771C107.585 288.194 107.585 296.22 113.246 298.642L116.513 300.04C120.008 301.536 121.671 305.549 120.257 309.079L118.935 312.377C116.645 318.093 122.32 323.769 128.036 321.478L131.335 320.157C134.864 318.743 138.877 320.405 140.373 323.901L141.771 327.167C144.194 332.829 152.22 332.829 154.642 327.167L156.04 323.901C157.536 320.405 161.549 318.743 165.079 320.157L168.377 321.478C174.093 323.769 179.769 318.093 177.478 312.377L176.157 309.079C174.743 305.549 176.405 301.536 179.901 300.04L183.167 298.642C188.829 296.22 188.829 288.194 183.167 285.771L179.901 284.373C176.405 282.877 174.743 278.864 176.157 275.335L177.478 272.036C179.769 266.32 174.093 260.645 168.377 262.935L165.079 264.257C161.549 265.671 157.536 264.008 156.04 260.513L154.642 257.246ZM148.207 307.207C156.491 307.207 163.207 300.491 163.207 292.207C163.207 283.922 156.491 277.207 148.207 277.207C139.922 277.207 133.207 283.922 133.207 292.207C133.207 300.491 139.922 307.207 148.207 307.207Z" fill="#E5D5C3"/>
<path fill-rule="evenodd" clip-rule="evenodd" d="M169.593 321.849C169.19 321.764 168.784 321.641 168.377 321.478L165.079 320.157C161.549 318.743 157.536 320.405 156.04 323.901L155.316 325.593L147.187 307.173C147.524 307.195 147.864 307.207 148.207 307.207C153.219 307.207 157.657 304.748 160.381 300.972L169.593 321.849ZM141.433 258.035L140.373 260.512C138.877 264.008 134.864 265.671 131.334 264.257L128.036 262.935C127.889 262.876 127.742 262.822 127.595 262.774L136.464 282.872C139.212 279.42 143.451 277.207 148.207 277.207C148.792 277.207 149.369 277.24 149.937 277.305L141.433 258.035Z" fill="#F2DFCA"/>
</g>
<path d="M165.969 36.0395C157.695 50.3214 161.918 69.2877 175.403 78.4019C188.887 87.516 206.527 83.3267 214.802 69.0447C223.076 54.7628 218.853 35.7965 205.368 26.6823C191.884 17.5681 174.244 21.7575 165.969 36.0395Z" fill="#FFB112"/>
<path d="M170.803 35.9901C162.615 50.1229 166.794 68.8912 180.138 77.9102C193.482 86.9292 210.937 82.7836 219.126 68.6508C227.314 54.518 223.135 35.7497 209.791 26.7307C196.447 17.7117 178.992 21.8573 170.803 35.9901Z" fill="#FFCD6C"/>
<path fill-rule="evenodd" clip-rule="evenodd" d="M170.103 37.8693L223.063 49.0334C223.857 55.4247 222.764 62.0893 219.557 68.0012L167.216 56.9677C166.215 50.5874 167.1 43.8757 170.103 37.8693Z" fill="#FFD993"/>
<circle cx="1151" cy="287" r="75" fill="#F6F4EE"/>
<circle cx="1189" cy="100" r="75" fill="#F6F4EE"/>
<g clip-path="url(#clip1_65_833)">
<path d="M1148.6 39.6166C1145.46 40.5741 1142.62 42.3437 1140.38 44.7468C1138.14 47.1499 1136.58 50.1013 1135.84 53.303C1133.52 50.9812 1130.62 49.3135 1127.45 48.4685C1124.28 47.6235 1120.94 47.631 1117.77 48.4903C1112.8 50.1569 1108.69 53.7222 1106.34 58.4073C1103.99 63.0923 1103.6 68.5163 1105.23 73.4941C1108.9 86.2389 1126.32 96.2972 1140.29 102.496C1143.41 103.884 1146.92 104.128 1150.2 103.183C1153.48 102.239 1156.32 100.168 1158.23 97.3336C1166.76 84.6582 1176.17 66.8783 1172.5 54.1335C1171.24 49.0463 1168.02 44.664 1163.54 41.9439C1159.07 39.2239 1153.69 38.3872 1148.6 39.6166Z" fill="#FF3E00"/>
</g>
<circle cx="1266" cy="81" r="15" fill="#64C6FF"/>
<path d="M1127.92 182.2C1126.39 174.969 1131.01 167.869 1138.25 166.342L1242.99 144.224C1250.22 142.697 1257.32 147.321 1258.85 154.552L1276.66 238.874C1278.18 246.105 1273.56 253.205 1266.33 254.732L1161.58 276.85C1154.35 278.377 1147.25 273.753 1145.72 266.522L1127.92 182.2Z" fill="#00B2FF"/>
<path d="M1127.56 179.856C1126.13 173.072 1130.12 166.317 1136.75 164.293L1226.94 136.756C1234.46 134.462 1242.32 139.104 1243.94 146.79L1263.05 237.265C1264.53 244.276 1260.22 251.209 1253.28 252.991L1162.21 276.373C1154.83 278.268 1147.36 273.63 1145.79 266.177L1127.56 179.856Z" fill="#64C6FF"/>
<path d="M1250.26 178.249L1264.7 179.75C1264.7 179.75 1265.3 179.624 1265.97 180.579C1265.97 180.579 1271.18 203.79 1271.11 204.904C1271.03 206.019 1270.24 206.027 1270.24 206.027L1255.72 204.076L1219.98 211.622C1219.98 211.622 1209.44 210.711 1207.34 200.801C1205.25 190.891 1214.53 185.796 1214.53 185.796L1250.26 178.249Z" fill="#FFCD6C"/>
<circle cx="1220.36" cy="197.693" r="9.36746" transform="rotate(-11.9235 1220.36 197.693)" fill="#D5A23F"/>
<path d="M1058.37 187.38C1060.01 185.917 1062.6 187.117 1062.54 189.31L1062.28 199.107C1062.25 200.022 1062.73 200.877 1063.52 201.337L1071.99 206.259C1073.89 207.361 1073.55 210.198 1071.45 210.819L1062.05 213.593C1061.17 213.852 1060.5 214.57 1060.31 215.465L1058.25 225.045C1057.79 227.19 1054.98 227.742 1053.74 225.933L1048.2 217.851C1047.68 217.097 1046.79 216.685 1045.88 216.778L1036.13 217.777C1033.95 218 1032.56 215.505 1033.9 213.766L1039.87 205.997C1040.43 205.271 1040.54 204.299 1040.17 203.462L1036.21 194.499C1035.32 192.492 1037.27 190.398 1039.33 191.132L1048.57 194.412C1049.43 194.718 1050.39 194.529 1051.07 193.919L1058.37 187.38Z" fill="#F3EBDF"/>
<path d="M1303.21 336.348C1305.98 332.798 1311.65 334.278 1312.33 338.727L1315.36 358.603C1315.64 360.459 1316.92 362.012 1318.68 362.652L1337.58 369.505C1341.81 371.039 1342.16 376.89 1338.14 378.91L1320.17 387.934C1318.49 388.777 1317.41 390.469 1317.35 392.345L1316.67 412.439C1316.52 416.938 1311.06 419.073 1307.9 415.873L1293.76 401.574C1292.44 400.239 1290.5 399.731 1288.69 400.251L1269.37 405.817C1265.05 407.063 1261.33 402.532 1263.4 398.534L1272.63 380.673C1273.49 379.005 1273.37 377 1272.32 375.445L1261.06 358.79C1258.54 355.062 1261.7 350.126 1266.14 350.856L1285.98 354.115C1287.83 354.42 1289.7 353.688 1290.85 352.207L1303.21 336.348Z" fill="#FFCD6C"/>
<path d="M1225.16 92.2366C1226.39 91.4876 1227.95 92.4955 1227.76 93.9268L1226.66 102.586C1226.61 102.973 1226.7 103.365 1226.9 103.698L1231.43 111.16C1232.18 112.393 1231.17 113.945 1229.74 113.763L1221.08 112.661C1220.69 112.612 1220.3 112.695 1219.97 112.898L1212.51 117.429C1211.27 118.178 1209.72 117.171 1209.9 115.739L1211.01 107.08C1211.05 106.693 1210.97 106.301 1210.77 105.968L1206.24 98.5065C1205.49 97.2733 1206.5 95.7208 1207.93 95.9029L1216.59 97.0049C1216.97 97.0541 1217.37 96.9707 1217.7 96.7683L1225.16 92.2366Z" fill="white"/>
<path d="M946.935 34.4302C948.604 33.1286 951.038 34.3324 951.017 36.4491L950.887 49.2554C950.882 49.8273 951.07 50.3843 951.422 50.8353L959.297 60.9346C960.599 62.6039 959.395 65.038 957.278 65.0167L944.472 64.8874C943.9 64.8817 943.343 65.07 942.892 65.4217L932.793 73.2972C931.123 74.5989 928.689 73.395 928.711 71.2784L928.84 58.472C928.846 57.9001 928.657 57.3431 928.306 56.8921L920.43 46.7928C919.129 45.1236 920.332 42.6894 922.449 42.7108L935.255 42.84C935.827 42.8458 936.384 42.6574 936.835 42.3057L946.935 34.4302Z" fill="#FFCD6C"/>
<path d="M1207.48 398.983C1208.52 398.173 1210.04 398.922 1210.02 400.24L1209.94 408.212C1209.94 408.568 1210.06 408.914 1210.28 409.195L1215.18 415.482C1215.99 416.521 1215.24 418.037 1213.92 418.023L1205.95 417.943C1205.59 417.939 1205.25 418.056 1204.97 418.275L1198.68 423.178C1197.64 423.988 1196.12 423.239 1196.14 421.921L1196.22 413.949C1196.22 413.593 1196.1 413.246 1195.89 412.966L1190.98 406.679C1190.17 405.64 1190.92 404.124 1192.24 404.138L1200.21 404.218C1200.57 404.222 1200.91 404.104 1201.2 403.885L1207.48 398.983Z" fill="#F3EBDF"/>
<path d="M1214.78 315.399C1215.11 314.482 1216.36 314.361 1216.87 315.195L1219.94 320.246C1220.07 320.472 1220.28 320.644 1220.53 320.735L1226.08 322.775C1226.99 323.113 1227.12 324.36 1226.28 324.867L1221.23 327.936C1221 328.073 1220.83 328.283 1220.74 328.531L1218.7 334.078C1218.36 334.994 1217.12 335.115 1216.61 334.281L1213.54 329.23C1213.4 329.004 1213.19 328.832 1212.95 328.741L1207.4 326.701C1206.48 326.364 1206.36 325.116 1207.2 324.609L1212.25 321.54C1212.47 321.403 1212.64 321.193 1212.74 320.946L1214.78 315.399Z" fill="#FFCD6C"/>
<circle cx="1030" cy="256" r="10" fill="#00CA78"/>
<path d="M1333 154C1330.79 154 1328.67 153.122 1327.11 151.559C1325.54 149.996 1324.67 147.877 1324.67 145.667V137.333H1316.33C1314.12 137.333 1312 136.455 1310.44 134.893C1308.88 133.33 1308 131.21 1308 129C1308 126.79 1308.88 124.67 1310.44 123.107C1312 121.545 1314.12 120.667 1316.33 120.667H1324.67V112.333C1324.67 110.123 1325.54 108.004 1327.11 106.441C1328.67 104.878 1330.79 104 1333 104C1335.21 104 1337.33 104.878 1338.89 106.441C1340.46 108.004 1341.33 110.123 1341.33 112.333V120.667H1349.67C1351.88 120.667 1354 121.545 1355.56 123.107C1357.12 124.67 1358 126.79 1358 129C1358 131.21 1357.12 133.33 1355.56 134.893C1354 136.455 1351.88 137.333 1349.67 137.333H1341.33V145.667C1341.33 147.877 1340.46 149.996 1338.89 151.559C1337.33 153.122 1335.21 154 1333 154Z" fill="#00CA78"/>
<circle cx="1104.25" cy="275.62" r="8.5" transform="rotate(20.3197 1104.25 275.62)" fill="#FFCD6C"/>
<rect x="1075.63" y="275.153" width="55" height="17" rx="8.5" transform="rotate(20.3197 1075.63 275.153)" fill="#FFCD6C"/>
<circle cx="1091.75" cy="309.38" r="8.5" transform="rotate(20.3197 1091.75 309.38)" fill="#FFCD6C"/>
<g clip-path="url(#clip2_65_833)">
<path d="M1379.05 263.148L1357.13 254.501C1352 252.474 1349.47 246.666 1351.5 241.529L1360.17 219.547C1361.9 215.216 1361.51 210.329 1359.12 206.324C1356.88 202.466 1352.98 199.866 1348.56 199.288C1318.54 195.289 1290.95 216.388 1286.96 246.413C1284.14 267.567 1293.85 288.435 1311.84 299.904C1336.46 315.502 1368.96 309.196 1385.96 285.527C1388.56 281.898 1389.33 277.266 1388.04 272.991C1386.71 268.508 1383.4 264.88 1379.05 263.148Z" fill="#EFE9DB"/>
<path d="M1410.38 251.026C1410.87 246.66 1410.79 242.248 1410.12 237.906C1408.12 224.836 1401.06 213.075 1390.48 205.154C1389.78 204.634 1388.08 203.821 1388.08 203.821C1387.45 203.574 1384.76 202.512 1381.95 203.398C1377.85 204.627 1376.25 207.234 1376.12 207.434C1375.69 208.056 1375.32 208.725 1375.04 209.428L1366.42 231.289C1363.38 238.995 1367.16 247.707 1374.87 250.747L1396.82 259.405C1399.73 260.562 1403.01 260.26 1405.66 258.593C1407.62 257.377 1409.1 255.536 1409.87 253.369C1410.13 252.61 1410.3 251.823 1410.38 251.026Z" fill="#DDD1BC"/>
</g>
<path d="M1057.1 151.008C1074.68 142.766 1083.32 121.613 1076.42 103.762C1069.51 85.9105 1049.66 78.1205 1032.08 86.3624C1014.51 94.6042 1005.86 115.757 1012.77 133.608C1019.68 151.459 1039.53 159.249 1057.1 151.008Z" fill="#FFB112"/>
<path d="M1052.4 147.811C1069.79 139.656 1078.35 118.724 1071.51 101.059C1064.68 83.3941 1045.03 75.6854 1027.64 83.8412C1010.25 91.997 1001.69 112.929 1008.53 130.594C1015.37 148.259 1035.01 155.967 1052.4 147.811Z" fill="#FFCD6C"/>
<path fill-rule="evenodd" clip-rule="evenodd" d="M1054.34 146.467L1010.68 100.147C1014.2 93.4411 1019.73 87.7373 1026.79 84.1794L1069.94 129.957C1066.63 136.792 1061.27 142.68 1054.34 146.467Z" fill="#FFD993"/>
<path d="M1137.65 390.166C1149.7 396.185 1164.94 391.781 1171.69 380.331C1178.43 368.881 1174.12 354.72 1162.06 348.701C1150.01 342.683 1134.77 347.086 1128.02 358.537C1121.28 369.987 1125.59 384.148 1137.65 390.166Z" fill="#FFB112"/>
<path d="M1137.36 386.229C1149.29 392.185 1164.37 387.828 1171.05 376.497C1177.72 365.166 1173.46 351.153 1161.52 345.198C1149.59 339.242 1134.51 343.6 1127.84 354.93C1121.17 366.261 1125.43 380.274 1137.36 386.229Z" fill="#FFCD6C"/>
<path fill-rule="evenodd" clip-rule="evenodd" d="M1138.93 386.705L1145.34 342.984C1150.51 342.014 1155.99 342.566 1160.97 344.88L1154.64 388.089C1149.49 389.228 1143.97 388.847 1138.93 386.705Z" fill="#FFD993"/>
<defs>
<clipPath id="clip0_65_833">
<rect width="79" height="79" fill="white" transform="translate(109 253)"/>
</clipPath>
<clipPath id="clip1_65_833">
<rect width="70" height="70" fill="white" transform="translate(1098 48.3606) rotate(-16.0562)"/>
</clipPath>
<clipPath id="clip2_65_833">
<rect width="120" height="120" fill="white" transform="translate(1314.03 173) rotate(21.5272)"/>
</clipPath>
</defs>
</svg>
